<svg width="56" height="56" viewBox="0 0 56 56" fill="none" xmlns="http://www.w3.org/2000/svg">
<rect x="0.5" y="0.5" width="55" height="55" rx="27.5" fill="#256DF0" stroke="#256DF0"/>
<g clip-path="url(#clip0_260_880)">
<path d="M38.0833 37.1667H21.5833C20.854 37.1667 20.1545 36.8769 19.6388 36.3612C19.1231 35.8455 18.8333 35.146 18.8333 34.4167V17.9167C18.8333 17.6736 18.7368 17.4404 18.5648 17.2685C18.3929 17.0966 18.1598 17 17.9167 17C17.6736 17 17.4404 17.0966 17.2685 17.2685C17.0966 17.4404 17 17.6736 17 17.9167V34.4167C17.0015 35.6318 17.4848 36.7967 18.344 37.656C19.2033 38.5152 20.3682 38.9985 21.5833 39H38.0833C38.3264 39 38.5596 38.9034 38.7315 38.7315C38.9034 38.5596 39 38.3264 39 38.0833C39 37.8402 38.9034 37.6071 38.7315 37.4352C38.5596 37.2632 38.3264 37.1667 38.0833 37.1667Z" fill="white"/>
<path d="M22.5002 35.333C22.7433 35.333 22.9764 35.2364 23.1483 35.0645C23.3203 34.8926 23.4168 34.6595 23.4168 34.4163V27.9997C23.4168 27.7566 23.3203 27.5234 23.1483 27.3515C22.9764 27.1796 22.7433 27.083 22.5002 27.083C22.257 27.083 22.0239 27.1796 21.852 27.3515C21.6801 27.5234 21.5835 27.7566 21.5835 27.9997V34.4163C21.5835 34.6595 21.6801 34.8926 21.852 35.0645C22.0239 35.2364 22.257 35.333 22.5002 35.333Z" fill="white"/>
<path d="M26.1665 26.1667V34.4167C26.1665 34.6598 26.2631 34.8929 26.435 35.0648C26.6069 35.2368 26.8401 35.3333 27.0832 35.3333C27.3263 35.3333 27.5594 35.2368 27.7314 35.0648C27.9033 34.8929 27.9998 34.6598 27.9998 34.4167V26.1667C27.9998 25.9236 27.9033 25.6904 27.7314 25.5185C27.5594 25.3466 27.3263 25.25 27.0832 25.25C26.8401 25.25 26.6069 25.3466 26.435 25.5185C26.2631 25.6904 26.1665 25.9236 26.1665 26.1667Z" fill="white"/>
<path d="M30.75 28.9167V34.4167C30.75 34.6598 30.8466 34.8929 31.0185 35.0648C31.1904 35.2368 31.4236 35.3333 31.6667 35.3333C31.9098 35.3333 32.1429 35.2368 32.3148 35.0648C32.4868 34.8929 32.5833 34.6598 32.5833 34.4167V28.9167C32.5833 28.6736 32.4868 28.4404 32.3148 28.2685C32.1429 28.0966 31.9098 28 31.6667 28C31.4236 28 31.1904 28.0966 31.0185 28.2685C30.8466 28.4404 30.75 28.6736 30.75 28.9167Z" fill="white"/>
<path d="M35.3335 25.2497V34.4163C35.3335 34.6595 35.4301 34.8926 35.602 35.0645C35.7739 35.2364 36.007 35.333 36.2502 35.333C36.4933 35.333 36.7264 35.2364 36.8983 35.0645C37.0703 34.8926 37.1668 34.6595 37.1668 34.4163V25.2497C37.1668 25.0066 37.0703 24.7734 36.8983 24.6015C36.7264 24.4296 36.4933 24.333 36.2502 24.333C36.007 24.333 35.7739 24.4296 35.602 24.6015C35.4301 24.7734 35.3335 25.0066 35.3335 25.2497Z" fill="white"/>
<path d="M22.5 25.2505C22.7431 25.2504 22.9762 25.1538 23.1481 24.9819L26.4352 21.6947C26.6099 21.5283 26.842 21.4354 27.0833 21.4354C27.3246 21.4354 27.5567 21.5283 27.7314 21.6947L29.7224 23.6857C30.2381 24.2013 30.9374 24.4909 31.6666 24.4909C32.3958 24.4909 33.0952 24.2013 33.6109 23.6857L38.7314 18.5652C38.8984 18.3923 38.9908 18.1608 38.9887 17.9204C38.9866 17.6801 38.8902 17.4502 38.7202 17.2802C38.5503 17.1102 38.3203 17.0138 38.08 17.0118C37.8397 17.0097 37.6081 17.1021 37.4352 17.269L32.3147 22.3886C32.1428 22.5605 31.9097 22.657 31.6666 22.657C31.4236 22.657 31.1905 22.5605 31.0186 22.3886L29.0276 20.3985C28.5119 19.883 27.8125 19.5934 27.0833 19.5934C26.3541 19.5934 25.6548 19.883 25.1391 20.3985L21.8519 23.6857C21.7237 23.8139 21.6365 23.9772 21.6011 24.155C21.5657 24.3328 21.5839 24.5171 21.6533 24.6846C21.7226 24.852 21.8401 24.9952 21.9908 25.0959C22.1415 25.1966 22.3187 25.2504 22.5 25.2505Z" fill="white"/>
</g>
<defs>
<clipPath id="clip0_260_880">
<rect width="22" height="22" fill="white" transform="translate(17 17)"/>
</clipPath>
</defs>
</svg>
