<svg width="56" height="56" viewBox="0 0 56 56" fill="none" xmlns="http://www.w3.org/2000/svg">
<rect x="0.5" y="0.5" width="55" height="55" rx="27.5" fill="white" stroke="#E6E6E6"/>
<g clip-path="url(#clip0_274_2157)">
<path d="M38.0833 37.1667H21.5833C20.854 37.1667 20.1545 36.8769 19.6388 36.3612C19.1231 35.8455 18.8333 35.146 18.8333 34.4167V17.9167C18.8333 17.6736 18.7368 17.4404 18.5648 17.2685C18.3929 17.0966 18.1598 17 17.9167 17C17.6736 17 17.4404 17.0966 17.2685 17.2685C17.0966 17.4404 17 17.6736 17 17.9167V34.4167C17.0015 35.6318 17.4848 36.7967 18.344 37.656C19.2033 38.5152 20.3682 38.9985 21.5833 39H38.0833C38.3264 39 38.5596 38.9034 38.7315 38.7315C38.9034 38.5596 39 38.3264 39 38.0833C39 37.8402 38.9034 37.6071 38.7315 37.4352C38.5596 37.2632 38.3264 37.1667 38.0833 37.1667Z" fill="black"/>
<path d="M22.4997 35.333C22.7428 35.333 22.9759 35.2364 23.1479 35.0645C23.3198 34.8926 23.4163 34.6595 23.4163 34.4163V27.9997C23.4163 27.7566 23.3198 27.5234 23.1479 27.3515C22.9759 27.1796 22.7428 27.083 22.4997 27.083C22.2566 27.083 22.0234 27.1796 21.8515 27.3515C21.6796 27.5234 21.583 27.7566 21.583 27.9997V34.4163C21.583 34.6595 21.6796 34.8926 21.8515 35.0645C22.0234 35.2364 22.2566 35.333 22.4997 35.333Z" fill="black"/>
<path d="M26.167 26.1667V34.4167C26.167 34.6598 26.2636 34.8929 26.4355 35.0648C26.6074 35.2368 26.8405 35.3333 27.0837 35.3333C27.3268 35.3333 27.5599 35.2368 27.7318 35.0648C27.9037 34.8929 28.0003 34.6598 28.0003 34.4167V26.1667C28.0003 25.9236 27.9037 25.6904 27.7318 25.5185C27.5599 25.3466 27.3268 25.25 27.0837 25.25C26.8405 25.25 26.6074 25.3466 26.4355 25.5185C26.2636 25.6904 26.167 25.9236 26.167 26.1667Z" fill="black"/>
<path d="M30.75 28.9167V34.4167C30.75 34.6598 30.8466 34.8929 31.0185 35.0648C31.1904 35.2368 31.4236 35.3333 31.6667 35.3333C31.9098 35.3333 32.1429 35.2368 32.3148 35.0648C32.4868 34.8929 32.5833 34.6598 32.5833 34.4167V28.9167C32.5833 28.6736 32.4868 28.4404 32.3148 28.2685C32.1429 28.0966 31.9098 28 31.6667 28C31.4236 28 31.1904 28.0966 31.0185 28.2685C30.8466 28.4404 30.75 28.6736 30.75 28.9167Z" fill="black"/>
<path d="M35.333 25.2497V34.4163C35.333 34.6595 35.4296 34.8926 35.6015 35.0645C35.7734 35.2364 36.0066 35.333 36.2497 35.333C36.4928 35.333 36.7259 35.2364 36.8979 35.0645C37.0698 34.8926 37.1663 34.6595 37.1663 34.4163V25.2497C37.1663 25.0066 37.0698 24.7734 36.8979 24.6015C36.7259 24.4296 36.4928 24.333 36.2497 24.333C36.0066 24.333 35.7734 24.4296 35.6015 24.6015C35.4296 24.7734 35.333 25.0066 35.333 25.2497Z" fill="black"/>
<path d="M22.5005 25.2505C22.7436 25.2504 22.9767 25.1538 23.1485 24.9819L26.4357 21.6947C26.6104 21.5283 26.8425 21.4354 27.0838 21.4354C27.3251 21.4354 27.5572 21.5283 27.7319 21.6947L29.7229 23.6857C30.2386 24.2013 30.9379 24.4909 31.6671 24.4909C32.3963 24.4909 33.0957 24.2013 33.6114 23.6857L38.7319 18.5652C38.8989 18.3923 38.9912 18.1608 38.9892 17.9204C38.9871 17.6801 38.8907 17.4502 38.7207 17.2802C38.5507 17.1102 38.3208 17.0138 38.0805 17.0118C37.8401 17.0097 37.6086 17.1021 37.4357 17.269L32.3152 22.3886C32.1433 22.5605 31.9102 22.657 31.6671 22.657C31.4241 22.657 31.1909 22.5605 31.019 22.3886L29.028 20.3985C28.5123 19.883 27.813 19.5934 27.0838 19.5934C26.3546 19.5934 25.6552 19.883 25.1395 20.3985L21.8524 23.6857C21.7242 23.8139 21.6369 23.9772 21.6016 24.155C21.5662 24.3328 21.5844 24.5171 21.6538 24.6846C21.7231 24.852 21.8406 24.9952 21.9913 25.0959C22.142 25.1966 22.3192 25.2504 22.5005 25.2505Z" fill="black"/>
</g>
<defs>
<clipPath id="clip0_274_2157">
<rect width="22" height="22" fill="white" transform="translate(17 17)"/>
</clipPath>
</defs>
</svg>
