<svg width="56" height="56" viewBox="0 0 56 56" fill="none" xmlns="http://www.w3.org/2000/svg">
<rect x="0.5" y="0.5" width="55" height="55" rx="27.5" fill="white" stroke="#E6E6E6"/>
<g clip-path="url(#clip0_260_881)">
<path d="M36.25 25.25H31.6667C30.1542 25.25 28.9167 26.4875 28.9167 28C28.9167 29.5125 30.1542 30.75 31.6667 30.75H36.25C37.7625 30.75 39 29.5125 39 28C39 26.4875 37.7625 25.25 36.25 25.25ZM36.25 28.9167H31.6667C31.1625 28.9167 30.75 28.5042 30.75 28C30.75 27.4958 31.1625 27.0833 31.6667 27.0833H36.25C36.7542 27.0833 37.1667 27.4958 37.1667 28C37.1667 28.5042 36.7542 28.9167 36.25 28.9167ZM31.6667 22.5H36.25C37.7625 22.5 39 21.2625 39 19.75C39 18.2375 37.7625 17 36.25 17H31.6667C30.1542 17 28.9167 18.2375 28.9167 19.75C28.9167 21.2625 30.1542 22.5 31.6667 22.5ZM31.6667 18.8333H36.25C36.7542 18.8333 37.1667 19.2458 37.1667 19.75C37.1667 20.2542 36.7542 20.6667 36.25 20.6667H31.6667C31.1625 20.6667 30.75 20.2542 30.75 19.75C30.75 19.2458 31.1625 18.8333 31.6667 18.8333ZM36.25 33.5H31.6667C30.1542 33.5 28.9167 34.7375 28.9167 36.25C28.9167 37.7625 30.1542 39 31.6667 39H36.25C37.7625 39 39 37.7625 39 36.25C39 34.7375 37.7625 33.5 36.25 33.5ZM36.25 37.1667H31.6667C31.1625 37.1667 30.75 36.7542 30.75 36.25C30.75 35.7458 31.1625 35.3333 31.6667 35.3333H36.25C36.7542 35.3333 37.1667 35.7458 37.1667 36.25C37.1667 36.7542 36.7542 37.1667 36.25 37.1667ZM23.4167 28.9167H20.6667C18.6408 28.9167 17 30.5575 17 32.5833V35.3333C17 37.3592 18.6408 39 20.6667 39H23.4167C25.4425 39 27.0833 37.3592 27.0833 35.3333V32.5833C27.0833 30.5575 25.4425 28.9167 23.4167 28.9167ZM25.25 35.3333C25.25 36.3417 24.425 37.1667 23.4167 37.1667H20.6667C19.6583 37.1667 18.8333 36.3417 18.8333 35.3333V32.5833C18.8333 31.575 19.6583 30.75 20.6667 30.75H23.4167C24.425 30.75 25.25 31.575 25.25 32.5833V35.3333ZM23.4167 17H20.6667C18.6408 17 17 18.6408 17 20.6667V23.4167C17 25.4425 18.6408 27.0833 20.6667 27.0833H23.4167C25.4425 27.0833 27.0833 25.4425 27.0833 23.4167V20.6667C27.0833 18.6408 25.4425 17 23.4167 17ZM25.25 23.4167C25.25 24.425 24.425 25.25 23.4167 25.25H20.6667C19.6583 25.25 18.8333 24.425 18.8333 23.4167V20.6667C18.8333 19.6583 19.6583 18.8333 20.6667 18.8333H23.4167C24.425 18.8333 25.25 19.6583 25.25 20.6667V23.4167Z" fill="black"/>
</g>
<defs>
<clipPath id="clip0_260_881">
<rect width="22" height="22" fill="white" transform="translate(17 17)"/>
</clipPath>
</defs>
</svg>
